<svg width="130" height="130" viewBox="0 0 130 130" fill="none" xmlns="http://www.w3.org/2000/svg">
<path d="M65 127C99.2417 127 127 99.2417 127 65C127 30.7583 99.2417 3 65 3C30.7583 3 3 30.7583 3 65C3 99.2417 30.7583 127 65 127Z" stroke="#008000" stroke-width="5"/>
<path d="M99.3706 57.8904C93.5897 75.233 82.0279 81.0139 64.6853 75.233C47.3426 81.0139 35.7809 75.233 30 57.8904C41.5617 52.1095 53.1235 54.9999 64.6853 66.5617C76.2471 54.9999 87.8088 52.1095 99.3706 57.8904Z" fill="#008000"/>
<path d="M64.5664 55.0279C73.1867 55.0279 80.1748 48.0398 80.1748 39.4195C80.1748 30.7993 73.1867 23.8112 64.5664 23.8112C55.9461 23.8112 48.958 30.7993 48.958 39.4195C48.958 48.0398 55.9461 55.0279 64.5664 55.0279Z" fill="#008000"/>
<path d="M42.8881 101.853C34.2168 88.8462 47.2238 75.8392 64.5665 80.1749C81.9091 75.8392 94.9161 88.8462 86.2448 101.853C77.5734 114.86 51.5595 114.86 42.8881 101.853Z" fill="#FF6347"/>
<path opacity="0.3" d="M57.6294 98.3846C60.0239 98.3846 61.965 94.5024 61.965 89.7133C61.965 84.9243 60.0239 81.042 57.6294 81.042C55.2348 81.042 53.2937 84.9243 53.2937 89.7133C53.2937 94.5024 55.2348 98.3846 57.6294 98.3846Z" fill="white"/>
</svg>
